<?xml version="1.0" encoding="UTF-8" standalone="no"?>
<!-- Created with Inkscape (http://www.inkscape.org/) -->

<svg
   xmlns:dc="http://purl.org/dc/elements/1.1/"
   xmlns:cc="http://creativecommons.org/ns#"
   xmlns:rdf="http://www.w3.org/1999/02/22-rdf-syntax-ns#"
   xmlns:svg="http://www.w3.org/2000/svg"
   xmlns="http://www.w3.org/2000/svg"
   xmlns:sodipodi="http://sodipodi.sourceforge.net/DTD/sodipodi-0.dtd"
   xmlns:inkscape="http://www.inkscape.org/namespaces/inkscape"
   width="64px"
   height="64px"
   id="svg3001"
   version="1.1"
   inkscape:version="0.48.2 r9819"
   sodipodi:docname="chromepg.svg"
   inkscape:export-filename="/home/alex/projects/chromepg/res/chromepg16.png"
   inkscape:export-xdpi="22.5"
   inkscape:export-ydpi="22.5">
  <defs
     id="defs3003" />
  <sodipodi:namedview
     id="base"
     pagecolor="#ffffff"
     bordercolor="#666666"
     borderopacity="1.0"
     inkscape:pageopacity="0.0"
     inkscape:pageshadow="2"
     inkscape:zoom="5.5"
     inkscape:cx="32"
     inkscape:cy="32"
     inkscape:current-layer="layer1"
     showgrid="true"
     inkscape:document-units="px"
     inkscape:grid-bbox="true"
     inkscape:window-width="1366"
     inkscape:window-height="744"
     inkscape:window-x="0"
     inkscape:window-y="24"
     inkscape:window-maximized="1" />
  <metadata
     id="metadata3006">
    <rdf:RDF>
      <cc:Work
         rdf:about="">
        <dc:format>image/svg+xml</dc:format>
        <dc:type
           rdf:resource="http://purl.org/dc/dcmitype/StillImage" />
        <dc:title></dc:title>
      </cc:Work>
    </rdf:RDF>
  </metadata>
  <g
     id="layer1"
     inkscape:label="Layer 1"
     inkscape:groupmode="layer">
    <path
       style="fill:#000000;fill-opacity:1;fill-rule:nonzero;stroke:none"
       id="path3013"
       d="m 13.364569,27.416891 c -0.09216,0.812812 -0.197623,1.624264 -0.271916,2.439081 -0.06732,0.790729 -0.08205,1.58442 -0.09034,2.377538 -0.02498,0.64288 0.0174,1.280861 0.07797,1.920098 0.07984,0.73482 0.265786,1.45057 0.439093,2.167259 0.179142,0.794939 0.329017,1.59584 0.511584,2.390108 0.139733,0.742161 0.490466,1.40113 0.826806,2.066984 0.432884,0.766268 0.880648,1.523694 1.3037,2.295552 0.363465,0.713565 0.75817,1.408262 1.185139,2.085424 0.470581,0.749743 1.075663,1.391158 1.731285,1.979783 0.643583,0.570745 1.325223,1.094826 2.001342,1.625683 0.805356,0.604761 1.566061,1.264504 2.330712,1.91885 0.654736,0.615709 1.367246,1.144149 2.198912,1.488999 0.777088,0.301375 1.607616,0.448789 2.429787,0.569416 0.70599,0.128832 1.416661,0.260707 2.136378,0.240424 0.707793,-0.03508 1.405522,-0.190479 2.090953,-0.363633 0.609895,-0.14145 1.208242,-0.308679 1.750308,-0.626738 -4.021757,2.416641 -1.650367,0.986104 -0.809325,0.288388 0.576735,-0.507207 1.148599,-1.019846 1.719976,-1.533081 0.551272,-0.500034 1.055263,-1.047963 1.559925,-1.593917 0.466982,-0.464062 0.845625,-0.997656 1.219056,-1.536222 0.435554,-0.568604 0.886406,-1.123675 1.306493,-1.704157 0.522119,-0.714711 1.068941,-1.41059 1.606531,-2.113573 0.439934,-0.575554 0.758275,-1.21053 0.98921,-1.893888 0.276483,-0.867274 0.442652,-1.76268 0.555993,-2.6642 0.09324,-0.853279 0.102586,-1.712144 0.113097,-2.569454 0.06038,-0.969062 0.123539,-1.937405 0.157005,-2.907908 0.05729,-0.909054 0.128964,-1.816896 0.165958,-2.727132 0.05958,-0.678259 -0.01019,-1.34865 -0.116478,-2.017552 -0.06492,-0.538671 -0.203108,-1.062878 -0.308591,-1.593846 -0.03429,-0.404381 -0.143525,-0.783533 -0.287419,-1.16095 -0.197229,-0.459843 -0.439318,-0.900047 -0.680144,-1.338393 -0.176615,-0.358702 -0.370787,-0.706254 -0.583884,-1.044362 -0.24407,-0.356099 -0.535187,-0.678403 -0.852669,-0.969911 -0.367898,-0.333385 -0.752483,-0.651227 -1.201105,-0.868581 -0.43848,-0.220947 -0.90868,-0.378045 -1.38126,-0.509617 -0.719017,-0.222572 -1.454806,-0.377443 -2.200839,-0.473437 -0.785145,-0.05429 -1.567954,-0.121502 -2.351909,-0.191934 -0.715972,-0.06394 -1.43486,-0.07695 -2.153187,-0.08534 -0.738811,-0.01831 -1.473568,-0.0091 -2.209357,0.05706 -0.769312,0.03734 -1.527686,0.15882 -2.285546,0.288018 -0.807238,0.163418 -1.605924,0.362409 -2.402671,0.570232 -0.888895,0.252638 -1.774872,0.519902 -2.647783,0.823697 -0.700057,0.230885 -1.422286,0.388532 -2.147905,0.514351 -0.614942,0.09053 -1.227916,0.196857 -1.838594,0.314323 -0.582547,0.120108 -1.176276,0.196881 -1.756302,0.32739 -0.447172,0.07487 -0.871777,0.231757 -1.316482,0.317149 -0.379019,0.09608 -0.726611,0.271012 -1.084865,0.421577 0.09447,-0.05588 -0.498314,0.271109 -0.375526,0.200106 0.693836,-0.401214 2.780156,-1.596509 2.085309,-1.197048 -0.955277,0.54918 -1.938209,1.206508 -2.974097,1.661893 -1.024518,0.400934 -2.9578699,1.562305 1.149947,-0.779068 -0.228918,0.133517 -0.460276,0.274366 -0.612337,0.495677 -0.183249,0.328643 -0.244715,0.696384 -0.287683,1.064888 -0.04008,0.418937 -0.03884,0.840177 -0.03898,1.26057 -0.01935,0.379005 0.01316,0.749671 0.07573,1.122596 0.06902,0.356461 0.214911,0.683644 0.384765,1.001224 0.156362,0.275308 0.282874,0.556859 0.391614,0.854079 0.13031,0.363701 0.447914,0.476414 0.788479,0.587551 0.286054,0.08399 0.582221,0.115268 0.87796,0.140472 0,0 -2.188966,1.554474 -2.188966,1.554474 l 0,0 c -0.30894,-0.04061 -0.617537,-0.08969 -0.912521,-0.194538 -0.40459,-0.159414 -0.75449,-0.350088 -0.920847,-0.777857 -0.111197,-0.283353 -0.220889,-0.561227 -0.3735442,-0.826063 -0.1798051,-0.34423 -0.336626,-0.6973 -0.4237698,-1.078046 -0.065124,-0.387486 -0.1240929,-0.769501 -0.093036,-1.164568 0.00141,-0.428061 -5.262e-4,-0.856791 0.025852,-1.284165 0.034484,-0.386401 0.074299,-0.786516 0.2365099,-1.143068 0.097354,-0.292366 0.2865081,-0.493731 0.556393,-0.642711 1.173245,-0.673058 2.236089,-1.348771 3.458968,-1.858053 0.154694,-0.07703 0.609273,-0.326165 0.46001,-0.23908 -0.692451,0.404005 -2.781536,1.595602 -2.081551,1.204794 0.954423,-0.532864 1.890016,-1.176133 2.900471,-1.631474 0.360615,-0.158905 0.729864,-0.299709 1.116876,-0.380234 0.435066,-0.104118 0.86398,-0.233471 1.306571,-0.305151 0.584808,-0.104159 1.168354,-0.213966 1.752695,-0.320722 0.610607,-0.113439 1.223581,-0.214177 1.837101,-0.310446 0.712193,-0.133812 1.420742,-0.296351 2.106721,-0.532515 0.879556,-0.291399 1.766072,-0.564354 2.660088,-0.807814 0.803526,-0.203101 1.605913,-0.412765 2.422646,-0.55747 0.763503,-0.127695 1.530313,-0.227422 2.303574,-0.27339 0.740355,-0.05586 1.481342,-0.04712 2.223405,-0.0357 0.72241,0.0114 1.445799,0.02556 2.164833,0.102634 0.783951,0.07464 1.569361,0.124835 2.352505,0.20589 0.758053,0.11064 1.506282,0.275041 2.241428,0.491679 0.487814,0.144656 0.976485,0.301878 1.424691,0.546886 0.449616,0.256264 0.849128,0.58424 1.231944,0.931216 0.333903,0.309247 0.644117,0.646694 0.902351,1.022571 0.216038,0.342867 0.40437,0.700641 0.582807,1.06435 0.244096,0.449458 0.481186,0.903803 0.698257,1.366834 0.157484,0.389967 0.29423,0.780656 0.313574,1.204965 0.0929,0.538067 0.23079,1.06738 0.28822,1.611587 0.113456,0.685209 0.209642,1.37206 0.139284,2.068586 -0.05271,0.913173 -0.129214,1.824543 -0.195585,2.736791 -0.02722,0.965149 -0.07512,1.929079 -0.139605,2.892467 -0.0049,0.868247 -0.02596,1.737339 -0.113175,2.601813 -0.10236,0.911761 -0.257982,1.819269 -0.518908,2.700191 -0.20553,0.716872 -0.507595,1.376907 -0.95198,1.980216 -0.5433,0.698444 -1.090434,1.393658 -1.614206,2.106995 -0.411329,0.577514 -0.827672,1.148622 -1.284528,1.691717 -0.385963,0.54174 -0.74156,1.104869 -1.216994,1.5766 -0.517277,0.539467 -1.005166,1.107834 -1.554124,1.617226 -0.575681,0.505121 -1.137998,1.024788 -1.712678,1.531339 -1.084257,1.011641 -2.478146,1.65628 -3.738572,2.389268 -0.564,0.26853 -1.169322,0.419775 -1.775893,0.561814 -0.701054,0.160719 -1.410746,0.315218 -2.133571,0.316553 -0.725065,-0.02175 -1.437412,-0.151507 -2.150002,-0.281015 -0.836125,-0.139859 -1.680374,-0.297577 -2.465491,-0.627125 -0.836869,-0.383454 -1.558236,-0.934502 -2.227893,-1.564344 -0.757759,-0.6585 -1.525074,-1.306139 -2.334198,-1.901559 C 18.161113,49.64086 17.476246,49.110763 16.83573,48.527787 16.168856,47.916866 15.546984,47.258075 15.057744,46.492743 14.625701,45.811579 14.231766,45.110586 13.869006,44.389778 13.447444,43.614513 13.00358,42.852258 12.560561,42.089136 12.205501,41.407924 11.8371,40.73211 11.692302,39.967657 11.521951,39.172002 11.365745,38.37361 11.193337,37.578524 c -0.185971,-0.724675 -0.381386,-1.448538 -0.475335,-2.192353 -0.06449,-0.649665 -0.122029,-1.296335 -0.08155,-1.950409 0.0089,-0.801358 0.0251,-1.603211 0.09276,-2.402167 0.07183,-0.808196 0.18681,-1.612 0.226351,-2.422648 0,0 2.408999,-1.194056 2.408999,-1.194056 z"
       inkscape:connector-curvature="0" />
    <path
       style="fill:#000000;fill-opacity:1;fill-rule:nonzero;stroke:none"
       id="path3015"
       d="m 11.137477,23.611761 c -0.145547,-0.556766 -0.228612,-1.126529 -0.280923,-1.698817 -0.05723,-0.644523 -0.132507,-1.286052 -0.16832,-1.932549 -0.05622,-0.889065 -0.02743,-1.776499 0.02952,-2.664234 0.03415,-0.813428 0.170094,-1.617192 0.322454,-2.415418 0.139689,-0.806806 0.285098,-1.612064 0.448002,-2.414549 0.153575,-0.744576 0.37097,-1.473403 0.569187,-2.20669 0.136722,-0.5543748 0.346566,-1.0657958 0.66106,-1.541277 0.474569,-0.632014 1.059644,-1.173493 1.663763,-1.6794881 1.122381,-0.8463919 2.346571,-1.5748146 3.649388,-2.106417 0.529839,-0.2107177 1.063858,-0.4175717 1.619134,-0.5520904 0.463876,-0.1538781 0.948477,-0.2248481 1.411115,-0.3838782 0.53203,-0.1438885 0.999807,-0.4410853 1.505838,-0.6495644 0.596499,-0.2711921 1.224242,-0.4736591 1.853203,-0.6553639 0.641363,-0.1340027 1.282777,-0.2648232 1.934889,-0.3350684 0.745958,-0.02983 1.487764,-0.093121 2.231457,-0.1575283 0.667558,-0.057485 1.337101,-0.079195 2.006743,-0.091763 0.625554,0.01613 1.204783,0.2214726 1.777418,0.454065 0.912623,0.4104208 1.772772,0.9197769 2.635503,1.4235369 0.663698,0.4289892 1.386285,0.7995718 1.971622,1.3370028 0.347108,0.3353445 0.594619,0.747542 0.81988,1.1699221 0.171797,0.3574061 0.387306,0.6899553 0.579923,1.0358846 0.20237,0.383747 0.384598,0.7778693 0.59232,1.1597142 0.298585,0.5295744 0.446101,1.1225016 0.634009,1.6960934 0.241315,0.862776 0.481119,1.725925 0.725974,2.587741 0.222452,0.73695 0.428679,1.478649 0.590195,2.231428 0.163958,0.841694 0.29039,1.688614 0.377241,2.541522 0.05268,0.525669 0.07486,1.053501 0.08331,1.581506 0.0021,0.255367 0.0057,0.130042 -0.0099,0.375999 0,0 -2.416582,1.191636 -2.416582,1.191636 l 0,0 c 0.04589,-0.214844 0.03213,-0.09982 0.03316,-0.34596 7.43e-4,-0.526266 -0.0039,-1.052867 -0.04166,-1.578044 C 38.879273,18.143258 38.755214,17.306123 38.58976,16.473817 38.424827,15.726788 38.214848,14.990796 38.005093,14.255316 37.778198,13.393914 37.53535,12.536917 37.284347,11.682241 37.092073,11.127918 36.928168,10.559266 36.644159,10.042718 36.436475,9.662012 36.252351,9.2692622 36.04472,8.8892969 35.852746,8.5409308 35.6416,8.2034714 35.470301,7.8438251 35.262785,7.4453093 35.024885,7.0650859 34.700561,6.7495733 34.139365,6.2241986 33.454084,5.8437426 32.812113,5.4286259 31.953237,4.9284013 31.085853,4.4398707 30.163971,4.0630499 29.606172,3.8558253 29.03864,3.6891734 28.436656,3.7004758 c -0.661218,0.011702 -1.322359,0.037067 -1.981267,0.095859 -0.744588,0.065879 -1.490171,0.1066296 -2.234627,0.1710293 -0.64185,0.087077 -1.280865,0.2089468 -1.907652,0.3721877 -0.622183,0.1969967 -1.244001,0.4000738 -1.834529,0.6810379 -0.502712,0.2337108 -0.994275,0.4969079 -1.535402,0.6344758 -0.471454,0.1305169 -0.950186,0.2325951 -1.418353,0.3752439 -0.543592,0.1560853 -1.073301,0.3589892 -1.593327,0.5806088 -0.871223,0.384418 -2.027907,1.1368122 1.613262,-0.9882966 0.07137,-0.041655 -0.146363,0.077048 -0.216723,0.120391 -0.163459,0.1006939 -0.313963,0.2214987 -0.477429,0.3221558 -0.608638,0.4854112 -1.20086,1.0017005 -1.689853,1.6107611 -0.329417,0.4456826 -0.550967,0.9204773 -0.695748,1.4572356 -0.204663,0.7303208 -0.442778,1.4519125 -0.59104,2.1970675 -0.163355,0.803109 -0.326159,1.6058 -0.456049,2.415243 -0.152104,0.788592 -0.290084,1.583308 -0.335569,2.386169 -0.0639,0.876633 -0.114376,1.752476 -0.03893,2.630931 0.04136,0.641872 0.126563,1.277766 0.181851,1.917675 0.04443,0.549434 0.10295,1.102914 0.277532,1.628823 0,0 -2.365324,1.302687 -2.365324,1.302687 z"
       inkscape:connector-curvature="0" />
    <path
       style="fill:#000000;fill-opacity:1;fill-rule:nonzero;stroke:none"
       id="path3017"
       d="m 14.616461,22.641886 c -0.0023,-0.710235 0.05076,-1.416995 0.104096,-2.12467 0.08954,-0.959744 0.224366,-1.91493 0.419985,-2.858743 0.185782,-0.818854 0.373661,-1.636811 0.544296,-2.459075 0.148543,-0.668149 0.299901,-1.336006 0.430918,-2.007864 0.108268,-0.620133 0.13043,-1.249864 0.198416,-1.874923 0.05518,-0.760891 0.205946,-1.5088799 0.332728,-2.2596598 0.0639,-0.5797591 0.225833,-1.1389386 0.448209,-1.6761359 0.303018,-0.6592115 0.792433,-1.184086 1.329232,-1.6585851 1.109873,-0.834875 2.287397,-1.7689816 3.686902,-1.955711 0.473437,-0.028047 0.952549,-0.042267 1.42388,0.015165 0.465864,0.047855 0.921041,0.1244021 1.365885,0.2717974 0.469972,0.1460645 0.937651,0.3037989 1.387211,0.5049339 0.407521,0.2073984 0.772749,0.4711834 1.104152,0.7842587 0.404836,0.4080721 0.800839,0.8247917 1.204861,1.2337303 0.412101,0.3889512 0.791315,0.8058007 1.155646,1.2389749 0.28341,0.3889203 0.572741,0.7731529 0.860045,1.1591729 0.335166,0.41892 0.670796,0.8396528 0.952337,1.2968974 0.274293,0.429229 0.46041,0.904491 0.634911,1.380618 0.193325,0.510137 0.346357,1.033819 0.517007,1.551457 0.154279,0.463858 0.348736,0.915881 0.559782,1.356699 0.213307,0.48184 0.422442,0.96516 0.593192,1.46392 0.167474,0.465294 0.308855,0.940954 0.441777,1.417387 0.138597,0.382216 0.241617,0.771947 0.298267,1.174317 0,0 -2.38201,1.251877 -2.38201,1.251877 l 0,0 C 32.183929,19.474607 32.093384,19.092901 31.953937,18.72188 31.832191,18.248221 31.692018,17.777089 31.524089,17.317999 31.359125,16.828637 31.164813,16.350594 30.951243,15.880394 30.731774,15.430948 30.522786,14.971229 30.370771,14.494491 30.201892,13.978968 30.061245,13.453792 29.859577,12.949029 29.694814,12.488729 29.508469,12.033172 29.248616,11.617227 28.972579,11.165524 28.645482,10.750486 28.312136,10.33999 28.024713,9.9598418 27.73144,9.5842624 27.45663,9.1947592 27.099527,8.7662482 26.729174,8.3522496 26.325247,7.9665424 25.923451,7.5585681 25.520902,7.1511528 25.107354,6.7550367 24.79194,6.4691001 24.445919,6.2221353 24.056761,6.0447234 23.60913,5.8590591 23.151571,5.6994315 22.685481,5.5662834 22.249555,5.4488683 21.806249,5.3762511 21.356401,5.3353403 c -0.463,-0.02495 -0.932,-0.023589 -1.390916,0.049203 -0.169505,0.038924 -0.226832,0.046038 -0.392155,0.1093942 -0.07157,0.027427 -0.276362,0.1316126 -0.210688,0.092098 3.755363,-2.2595238 2.308904,-1.3913999 1.523484,-0.8614508 -0.533764,0.4435962 -1.039352,0.9131773 -1.361394,1.5407026 -0.234112,0.518098 -0.421959,1.0584781 -0.490157,1.6260354 -0.131229,0.7448146 -0.29147,1.4867509 -0.340963,2.2431201 -0.05964,0.630881 -0.08424,1.264859 -0.180908,1.89146 -0.12313,0.677384 -0.28738,1.347114 -0.441332,2.017983 -0.169375,0.827324 -0.363976,1.648296 -0.560118,2.469493 -0.208997,0.929586 -0.336456,1.873829 -0.430774,2.82162 -0.04256,0.693761 -0.10644,1.38672 -0.06058,2.082273 0,0 -2.403442,1.224615 -2.403442,1.224615 z"
       inkscape:connector-curvature="0" />
    <path
       style="fill:#000000;fill-opacity:1;fill-rule:nonzero;stroke:none"
       id="path3019"
       d="m 23.876383,33.749714 c -0.0577,-0.606389 -0.105713,-1.213587 -0.132919,-1.822138 -0.0704,-0.605364 0.09719,-1.161208 0.3255,-1.712152 0.187984,-0.476153 0.489289,-0.871952 0.851991,-1.22582 0.953564,-0.804875 2.02151,-1.657789 3.250604,-1.92044 0.352446,-0.054 0.710319,-0.04897 1.065869,-0.04854 0.442666,0.0023 0.877634,0.134384 1.292998,0.27857 0.428329,0.183029 0.822574,0.432827 1.203022,0.699378 0.258003,0.218701 0.504362,0.446839 0.722903,0.70522 0.186908,0.267557 0.328905,0.561467 0.463644,0.857785 0.136806,0.339921 0.265181,0.683925 0.354815,1.039589 0.08238,0.366016 0.09623,0.741717 0.105276,1.115275 0.0055,0.364841 0.0034,0.729743 0.0025,1.094609 -0.0057,0.368479 0.01154,0.737478 -0.01615,1.105131 -0.02359,0.345654 -0.144106,0.667377 -0.239412,0.996318 -0.07722,0.346524 -0.166941,0.690419 -0.274309,1.028837 -0.119851,0.342123 -0.255707,0.677568 -0.396169,1.011507 -0.118259,0.29268 -0.15751,0.59203 -0.07557,0.897823 0.08055,0.251224 0.243456,0.469469 0.43312,0.649885 0.162849,0.212383 0.324756,0.426089 0.484355,0.641367 0.171178,0.228965 0.270331,0.488391 0.384467,0.746791 0.143686,0.291247 0.191508,0.609811 0.221633,0.929342 0.03547,0.375156 0.0436,0.737602 -0.101954,1.089554 -0.73717,1.078241 -2.105137,1.684789 -3.38815,1.779397 -0.379339,0.0047 -0.716728,-0.134189 -1.069167,-0.246167 -0.311876,-0.08497 -0.636668,-0.09369 -0.957748,-0.102518 -0.348569,0.0306 -0.675795,-0.03793 -1.013819,-0.106025 -0.324575,-0.05886 -0.655059,-0.0676 -0.983966,-0.07495 -0.360276,-0.0054 -0.720611,-0.0042 -1.080916,-0.0037 -0.345344,-0.04046 -0.662724,0.03789 -0.995745,0.106493 -0.336604,0.03905 -0.664943,0.07089 -0.995587,0.143987 -0.306382,0.02181 -0.676235,0.178743 -0.973816,0.06945 -0.244443,-0.360991 -0.01864,-0.471875 0.220078,-0.717278 0.214191,-0.210996 0.430163,-0.421395 0.654049,-0.622235 0.223911,-0.226253 0.404917,-0.490095 0.595203,-0.744258 0.205796,-0.282124 0.417193,-0.559629 0.610166,-0.850829 0.217587,-0.291253 0.39823,-0.606701 0.60878,-0.902721 0.256917,-0.368102 0.591898,-0.667185 0.895869,-0.993355 0.251845,-0.284612 0.295764,-0.640611 0.323246,-1.004428 0.02879,-0.38452 0.02177,-0.763293 -0.07681,-1.136912 -0.107434,-0.366642 -0.218779,-0.732238 -0.320928,-1.100426 -0.103882,-0.335579 -0.208987,-0.667598 -0.364235,-0.983335 -0.116445,-0.31461 -0.341435,-0.555712 -0.55089,-0.808686 -0.195345,-0.174993 -0.347013,-0.398681 -0.57794,-0.529085 -0.03777,-0.01306 -0.07555,-0.02611 -0.113325,-0.03917 0,0 2.25024,-1.492546 2.25024,-1.492546 l 0,0 c 0.04598,0.02501 0.09196,0.05003 0.137938,0.07504 0.230191,0.172428 0.417449,0.391136 0.615826,0.598215 0.221844,0.268015 0.448342,0.535967 0.57945,0.863242 0.167463,0.330576 0.271359,0.68115 0.387043,1.032135 0.09664,0.368565 0.213784,0.731352 0.317952,1.097773 0.121009,0.398937 0.147499,0.802778 0.116775,1.218368 -0.018,0.400159 -0.02957,0.808328 -0.249722,1.158337 -0.267753,0.357477 -0.642265,0.614872 -0.903875,0.980813 -0.223217,0.286203 -0.402936,0.596215 -0.601599,0.898887 -0.22261,0.268547 -0.392522,0.58348 -0.610256,0.856369 -0.199871,0.252239 -0.375981,0.51906 -0.576462,0.769069 -0.193511,0.229284 -0.436272,0.416852 -0.657415,0.618169 -0.0315,0.03544 -0.301108,0.329035 -0.337057,0.33119 -0.05415,0.0032 -0.124671,-0.09666 -0.15207,-0.129509 0.294466,-0.06436 0.608162,-0.04768 0.899555,-0.137985 0.331544,-0.06162 0.670359,-0.06995 0.999627,-0.146845 0.338875,-0.06751 0.678458,-0.06852 1.023403,-0.06017 0.362328,-3.1e-5 0.724755,-9.35e-4 1.086954,0.01018 0.339762,0.01403 0.680054,0.03634 1.013257,0.108843 0.326892,0.06487 0.653168,0.07369 0.986218,0.07411 0.339583,0.01876 0.680845,0.04822 1.004235,0.161747 0.321162,0.111069 0.645907,0.197602 0.990536,0.161061 0.178123,-0.0253 0.263921,-0.0303 0.435741,-0.08274 0.06212,-0.01896 0.23767,-0.102961 0.182102,-0.06933 -0.703399,0.425699 -1.423406,0.823484 -2.128093,1.247048 -0.05142,0.03091 0.115167,-0.0372 0.16661,-0.06806 0.04572,-0.02743 0.08072,-0.0697 0.121079,-0.104544 0.223195,-0.311199 0.197716,-0.578571 0.169336,-0.948298 -0.02137,-0.290367 -0.05205,-0.582036 -0.183722,-0.846728 -0.107841,-0.238905 -0.190859,-0.483598 -0.35552,-0.693771 -0.155106,-0.203781 -0.302833,-0.413638 -0.465284,-0.610901 -0.208694,-0.22383 -0.398889,-0.472371 -0.494475,-0.766869 -0.111514,-0.351631 -0.118567,-0.701597 -0.0036,-1.055305 0.118793,-0.339661 0.28702,-0.658997 0.407429,-0.998861 0.10503,-0.333858 0.21404,-0.668401 0.275821,-1.013203 0.07422,-0.328219 0.225894,-0.628892 0.259061,-0.966437 0.06118,-0.354661 0.01496,-0.718237 0.03007,-1.076868 9.04e-4,-0.363135 0.0029,-0.726281 2.58e-4,-1.089413 -0.0051,-0.355598 -0.01066,-0.713435 -0.0779,-1.06389 -0.07749,-0.341019 -0.203904,-0.666062 -0.332495,-0.990473 -0.128813,-0.271114 -0.249745,-0.548612 -0.427104,-0.792549 -0.208322,-0.235697 -0.433848,-0.455258 -0.680035,-0.651577 -0.363334,-0.247768 -0.731723,-0.495814 -1.151556,-0.63872 -0.408813,-0.120236 -0.824205,-0.226184 -1.254476,-0.201309 -0.342601,0.0053 -0.691539,0.0071 -1.021218,0.112255 -0.925556,0.377657 -0.111716,0.05364 2.007844,-1.191662 0.0502,-0.02949 -0.106605,0.0475 -0.156713,0.07715 -0.17812,0.105407 -0.308275,0.266646 -0.488611,0.369092 -0.365409,0.328721 -0.708392,0.66524 -0.9044,1.128041 -0.228937,0.517031 -0.44969,1.025243 -0.381944,1.60715 0.02261,0.596478 0.04836,1.194924 0.146308,1.784731 0,0 -2.385555,1.258453 -2.385555,1.258453 z"
       inkscape:connector-curvature="0" />
    <text
       xml:space="preserve"
       style="font-size:14px;font-style:normal;font-weight:normal;line-height:0%;letter-spacing:0px;word-spacing:0px;fill:#000000;fill-opacity:1;stroke:none;font-family:Sans"
       x="7.2727275"
       y="61.090912"
       id="text3021"
       sodipodi:linespacing="0%"><tspan
         sodipodi:role="line"
         id="tspan3023"
         x="7.2727275"
         y="61.090912"
         style="font-size:10px;font-style:normal;font-variant:normal;font-weight:bold;font-stretch:normal;fill:#4d4d4d;font-family:FreeMono;-inkscape-font-specification:FreeMono Bold">ChromePG</tspan></text>
  </g>
</svg>
